Coordinates
version=1
nRows=16
nColumns=40
inDegrees=yes

Units are S.I. units (second, meters, Newtons, ...)
If the header above contains a line with 'inDegrees', this indicates whether rotational values are in degrees (yes) or radians (no).

endheader
time	pelvis_tilt	pelvis_list	pelvis_rotation	pelvis_tx	pelvis_ty	pelvis_tz	hip_flexion_r	hip_adduction_r	hip_rotation_r	knee_angle_r	knee_angle_r_beta	ankle_angle_r	subtalar_angle_r	mtp_angle_r	hip_flexion_l	hip_adduction_l	hip_rotation_l	knee_angle_l	knee_angle_l_beta	ankle_angle_l	subtalar_angle_l	mtp_angle_l	lumbar_extension	lumbar_bending	lumbar_rotation	arm_flex_r	arm_add_r	arm_rot_r	elbow_flex_r	pro_sup_r	wrist_flex_r	wrist_dev_r	arm_flex_l	arm_add_l	arm_rot_l	elbow_flex_l	pro_sup_l	wrist_flex_l	wrist_dev_l
      1.25000000	     12.21405793	      0.78584770	      0.27785888	     -0.25515943	      1.06564955	     -1.04243991	      1.24910421	     -1.61094469	      1.57086435	     20.13469378	      0.35141670	      3.57702217	      0.00000000	      0.00000000	     -7.54422938	      2.97792739	     -7.79975025	     14.83525549	      0.25892405	     -1.77936664	      0.00000000	      0.00000000	    -21.59010933	     -4.83595702	      5.63783248	     16.58491880	     -9.09523743	     -2.21868913	     43.15933026	     86.63665142	      0.00000000	      0.00000000	     28.50737423	    -20.53948458	     23.10445715	     39.36875032	     86.57755421	      0.00000000	      0.00000000
      1.25500000	     12.26006880	      0.76363875	      0.37925898	     -0.25547804	      1.06568625	     -1.04283475	      1.35019480	     -1.55315738	      1.51875903	     19.72040156	      0.34418594	      3.61618252	      0.00000000	      0.00000000	     -7.51404564	      2.94584552	     -7.80296654	     14.96338561	      0.26116035	     -1.74455135	      0.00000000	      0.00000000	    -21.60777870	     -4.78898943	      5.29084969	     17.12653543	     -9.09905578	     -1.85004420	     42.96534200	     86.66641137	      0.00000000	      0.00000000	     28.80701662	    -20.80084144	     23.06583160	     39.48860537	     86.60372853	      0.00000000	      0.00000000
      1.26000000	     12.29148216	      0.75286160	      0.38816279	     -0.25582253	      1.06571578	     -1.04309677	      1.60793832	     -1.51876885	      1.50723943	     19.56463977	      0.34146738	      3.63809936	      0.00000000	      0.00000000	     -7.51614037	      2.95722411	     -7.81027744	     14.95124743	      0.26094850	     -1.74926925	      0.00000000	      0.00000000	    -21.63137039	     -4.80786250	      5.22151207	     17.47841949	     -9.14614495	     -1.87006603	     43.08402387	     86.66357121	      0.00000000	      0.00000000	     29.25118169	    -20.90836089	     22.99869407	     39.56509187	     86.59830602	      0.00000000	      0.00000000
      1.26500000	     12.28238533	      0.71412387	      0.53798499	     -0.25610208	      1.06578355	     -1.04348578	      1.53101309	     -1.41577706	      1.58027844	     18.60457897	      0.32471116	      3.42425188	      0.00000000	      0.00000000	     -7.43446308	      2.91533031	     -7.60775234	     15.01134500	      0.26199740	     -1.82443949	      0.00000000	      0.00000000	    -21.54635877	     -4.75537402	      5.00936460	     17.91230470	     -9.16133760	     -1.61780333	     42.89934129	     86.66517808	      0.00000000	      0.00000000	     29.85217798	    -21.09217656	     23.54091722	     39.31846985	     86.66456593	      0.00000000	      0.00000000
      1.27000000	     12.37014535	      0.70531446	      0.62257065	     -0.25638512	      1.06590769	     -1.04388340	      1.55765628	     -1.38072809	      1.52311357	     18.11635044	      0.31618996	      3.36127547	      0.00000000	      0.00000000	     -7.47395280	      2.91147527	     -7.59537034	     15.11196498	      0.26375355	     -1.80245168	      0.00000000	      0.00000000	    -21.62459323	     -4.74865365	      4.84953648	     18.24383000	     -9.40255252	     -1.07456694	     43.11546489	     86.58168558	      0.00000000	      0.00000000	     30.45521906	    -21.45074673	     24.43954371	     39.41415170	     86.56127787	      0.00000000	      0.00000000
      1.27500000	     12.32434081	      0.68271377	      0.69229420	     -0.25678569	      1.06591343	     -1.04425739	      1.76268314	     -1.33525701	      1.51368263	     17.59320897	      0.30705942	      3.20054349	      0.00000000	      0.00000000	     -7.34873993	      2.90453038	     -7.49798353	     15.19591088	      0.26521868	     -1.79551302	      0.00000000	      0.00000000	    -21.54447225	     -4.73150073	      4.76545304	     18.62749919	     -9.38813754	     -1.25979510	     43.12603362	     86.59026048	      0.00000000	      0.00000000	     30.97698378	    -21.48447898	     24.35126534	     39.38969658	     86.60285048	      0.00000000	      0.00000000
      1.28000000	     12.36463056	      0.66703213	      0.66660153	     -0.25716796	      1.06595847	     -1.04451473	      2.03998761	     -1.29470859	      1.46762177	     17.43589590	      0.30431379	      3.18967310	      0.00000000	      0.00000000	     -7.37362844	      2.91993919	     -7.50795828	     15.19235644	      0.26515664	     -1.78560694	      0.00000000	      0.00000000	    -21.56960178	     -4.74135067	      4.71879866	     18.99981623	     -9.43551775	     -1.27800952	     43.23608021	     86.59021844	      0.00000000	      0.00000000	     31.45377925	    -21.57869044	     24.27642321	     39.47282079	     86.60062494	      0.00000000	      0.00000000
      1.28500000	     12.24999784	      0.69328606	      0.77332281	     -0.25713304	      1.06585765	     -1.04485690	      2.13847114	     -1.30775898	      1.34142512	     16.54924800	      0.28883887	      2.86041308	      0.00000000	      0.00000000	     -7.19476106	      2.95376084	     -7.39353603	     15.28962353	      0.26685427	     -1.76616618	      0.00000000	      0.00000000	    -21.35458674	     -4.78075241	      4.58347541	     19.33026167	     -9.51558215	     -1.14121344	     43.15418480	     86.62817490	      0.00000000	      0.00000000	     31.97041447	    -21.67383267	     24.49432167	     39.39328001	     86.67151842	      0.00000000	      0.00000000
      1.29000000	     12.30574426	      0.67404663	      0.76137936	     -0.25751748	      1.06592275	     -1.04508165	      2.39794985	     -1.26853225	      1.31748274	     16.38557522	      0.28598224	      2.82319835	      0.00000000	      0.00000000	     -7.23195472	      2.95971610	     -7.40187784	     15.29864551	      0.26701174	     -1.74530240	      0.00000000	      0.00000000	    -21.39413768	     -4.77575519	      4.54649773	     19.74227048	     -9.55970643	     -1.14257328	     43.27752096	     86.62944812	      0.00000000	      0.00000000	     32.45062543	    -21.76911901	     24.44588108	     39.48028881	     86.67075040	      0.00000000	      0.00000000
      1.29500000	     12.39819335	      0.51636436	      0.89986245	     -0.25800274	      1.06609641	     -1.04547135	      2.18091645	     -1.05450570	      1.44247190	     15.16948925	      0.26475753	      1.86655545	      0.00000000	      0.00000000	     -7.16262907	      2.77586023	     -7.24024911	     15.60966644	      0.27244007	     -1.56100380	      0.00000000	      0.00000000	    -21.42894421	     -4.60220408	      4.37927472	     20.28776595	     -9.70951973	     -0.67228604	     43.00913441	     86.66809494	      0.00000000	      0.00000000	     33.21529536	    -21.99482566	     25.29854366	     39.26093599	     86.79795084	      0.00000000	      0.00000000
      1.30000000	     12.43987786	      0.50281500	      0.87719329	     -0.25825621	      1.06609268	     -1.04570272	      2.45797900	     -1.02211569	      1.38201801	     14.99947087	      0.26179015	      1.85094804	      0.00000000	      0.00000000	     -7.19324246	      2.78771747	     -7.25818804	     15.59682773	      0.27221600	     -1.55340552	      0.00000000	      0.00000000	    -21.43923304	     -4.60774183	      4.35987052	     20.70771164	     -9.77023382	     -0.69420675	     43.12230719	     86.66505084	      0.00000000	      0.00000000	     33.71099753	    -22.07909243	     25.24698474	     39.38193896	     86.79210327	      0.00000000	      0.00000000
      1.30500000	     12.44665125	      0.48790060	      0.84675536	     -0.25857107	      1.06599337	     -1.04589706	      2.74519752	     -0.99045718	      1.29727883	     14.74381113	      0.25732805	      1.81960392	      0.00000000	      0.00000000	     -7.17522188	      2.79925162	     -7.26900361	     15.58710074	      0.27204623	     -1.54647069	      0.00000000	      0.00000000	    -21.42281873	     -4.62687467	      4.35347710	     21.12362823	     -9.82700690	     -0.69194929	     43.20700797	     86.66452832	      0.00000000	      0.00000000	     34.23983021	    -22.17100825	     25.21478352	     39.51047369	     86.79116629	      0.00000000	      0.00000000
      1.31000000	     12.45334479	      0.32138539	      0.97940480	     -0.25877607	      1.06610081	     -1.04622293	      2.51384371	     -0.76645769	      1.33752053	     13.25467712	      0.23133776	      0.62353661	      0.00000000	      0.00000000	     -7.03949590	      2.60393886	     -7.13549009	     15.88423259	      0.27723216	     -1.36875885	      0.00000000	      0.00000000	    -21.31411424	     -4.45796789	      4.26380442	     21.70621514	     -9.91157642	     -0.38061354	     42.72536359	     86.69487191	      0.00000000	      0.00000000	     35.00095677	    -22.48505376	     26.47674663	     39.45801427	     86.89199066	      0.00000000	      0.00000000
      1.31500000	     12.47305362	      0.31052078	      0.93685727	     -0.25904883	      1.06610470	     -1.04646046	      2.80854278	     -0.74251181	      1.26864084	     13.06051988	      0.22794907	      0.61895199	      0.00000000	      0.00000000	     -7.04939712	      2.62362129	     -7.14677618	     15.86920572	      0.27696989	     -1.36799044	      0.00000000	      0.00000000	    -21.30381363	     -4.46410528	      4.25785468	     22.13326833	    -10.00041767	     -0.39058218	     42.83711498	     86.69133862	      0.00000000	      0.00000000	     35.51201955	    -22.56252030	     26.42453896	     39.58845944	     86.88139942	      0.00000000	      0.00000000
      1.32000000	     12.48919922	      0.24019611	      1.01145340	     -0.25907993	      1.06609364	     -1.04671150	      2.69575109	     -0.63122929	      1.20096688	     11.91747722	      0.20799922	     -0.02152721	      0.00000000	      0.00000000	     -7.01173911	      2.55125521	     -7.04155464	     15.97368549	      0.27879341	     -1.30142066	      0.00000000	      0.00000000	    -21.21285082	     -4.42440036	      4.25098523	     22.52881191	    -10.22139760	      0.00298665	     42.74387264	     86.69834229	      0.00000000	      0.00000000	     36.23865011	    -22.79647619	     27.35968032	     39.64293777	     86.91047351	      0.00000000	      0.00000000
      1.32500000	     12.53242391	      0.22824084	      0.96958291	     -0.25930819	      1.06607811	     -1.04692853	      2.98011562	     -0.60306897	      1.16925069	     11.75098635	      0.20509340	     -0.03720477	      0.00000000	      0.00000000	     -7.04200264	      2.57029278	     -7.04955234	     15.96764256	      0.27868794	     -1.29937412	      0.00000000	      0.00000000	    -21.21949877	     -4.41890469	      4.23824115	     22.96432304	    -10.26408017	      0.00099567	     42.86584246	     86.69575407	      0.00000000	      0.00000000	     36.73653693	    -22.84725624	     27.31405355	     39.77018506	     86.90125089	      0.00000000	      0.00000000
